<?xml version="1.0" encoding="utf-8"?>
<!-- Generator: Adobe Illustrator 23.0.2, SVG Export Plug-In . SVG Version: 6.00 Build 0)  -->
<svg version="1.1" id="Capa_1" xmlns="http://www.w3.org/2000/svg" xmlns:xlink="http://www.w3.org/1999/xlink" x="0px" y="0px"
	 viewBox="0 0 129.2 24.1" style="enable-background:new 0 0 129.2 24.1;" xml:space="preserve">
<style type="text/css">
	.st0{fill:#FFFFFF;}
</style>
<title>lg_televisa</title>
<path class="st0" d="M18.5,0c-2.2,0-4.4,0.2-6.5,0.8h13C22.9,0.2,20.8,0,18.5,0z"/>
<path class="st0" d="M8.1,2.7C7.4,3,6.7,3.5,6.1,3.8h6.2c0.5-0.4,1-0.8,1.6-1.2H8.1z"/>
<path class="st0" d="M30.9,3.8c-0.6-0.4-1.3-0.8-2-1.2H23c0.6,0.3,1.1,0.7,1.6,1.2H30.9z"/>
<path class="st0" d="M4.2,5.1C3.5,5.5,2.9,6,2.3,6.6h7.4c0.3-0.5,0.7-1,1.2-1.5H4.2z"/>
<path class="st0" d="M34.6,6.6C34,6,33.4,5.5,32.8,5.1h-6.6c0.4,0.5,0.8,1,1.2,1.5L34.6,6.6z"/>
<path class="st0" d="M36.7,10.1c-0.2-0.8-0.6-1.6-1.1-2.3h-7.7c0.3,0.7,0.5,1.5,0.7,2.3H36.7z"/>
<path class="st0" d="M1.6,7.8C1,8.5,0.6,9.2,0.4,10.1h8.1c0.1-0.8,0.4-1.6,0.7-2.3L1.6,7.8z"/>
<path class="st0" d="M8.3,11.1H0.1c-0.1,0.8-0.1,1.6,0,2.4h8.3C8.2,12.7,8.2,11.9,8.3,11.1z"/>
<path class="st0" d="M28.7,11.1h8.2c0.2,0.8,0.2,1.6,0,2.4h-8.4C28.8,12.7,28.8,11.9,28.7,11.1z"/>
<path class="st0" d="M34.7,16.9c0.7-0.7,1.4-1.5,1.8-2.4h-8.1c-0.3,0.9-0.7,1.7-1.2,2.4H34.7z"/>
<path class="st0" d="M0.5,14.5c0.5,0.9,1.1,1.7,1.9,2.4h7.4c-0.5-0.8-0.9-1.6-1.2-2.4H0.5z"/>
<path class="st0" d="M10.1,17.7H2.9c1.3,1.2,2.8,2.2,4.4,3h6.1C12.1,20,10.9,18.9,10.1,17.7z"/>
<path class="st0" d="M26.8,17.7H34c-1.3,1.2-2.8,2.2-4.4,3h-6.1C24.8,20,26,18.9,26.8,17.7z"/>
<path class="st0" d="M14.3,21.8H8.2c3.2,1.5,6.8,2.3,10.3,2.3c3.6,0,7.1-0.8,10.3-2.3h-6.2c-1.3,0.6-2.7,0.9-4.2,0.9
	C17.1,22.7,15.7,22.4,14.3,21.8z"/>
<polygon class="st0" points="50.3,10 46.4,10 46.4,6.3 58.6,6.3 58.6,10 54.6,10 54.6,20.4 50.3,20.4 "/>
<path class="st0" d="M68.3,16.2c0-4-1.8-6.2-5.8-6.2c-2.9-0.1-5.3,2.2-5.4,5.1c0,0.1,0,0.2,0,0.3c0,3.4,2.5,5.3,5.7,5.3
	c2.3,0,4.5-1,5.3-3.2h-3.6c-0.7,0.9-2,1-2.9,0.3c-0.4-0.4-0.7-0.9-0.7-1.5H68.3z M60.9,14.2c0.1-1,0.9-1.8,2-1.7c0,0,0,0,0,0
	c0.9,0,1.7,0.7,1.7,1.7c0,0,0,0,0,0L60.9,14.2z"/>
<rect x="70.2" y="6.3" class="st0" width="3.9" height="14.1"/>
<path class="st0" d="M87.2,16.2c0-4-1.8-6.2-5.8-6.2c-2.9-0.1-5.3,2.2-5.4,5.1c0,0.1,0,0.2,0,0.3c0,3.4,2.5,5.3,5.7,5.3
	c2.3,0,4.5-1,5.2-3.2h-3.6c-0.7,0.9-2,1-2.9,0.3c-0.4-0.4-0.7-0.9-0.7-1.5H87.2z M79.8,14.2c0.1-1,0.9-1.8,2-1.7c0,0,0,0,0,0
	c0.9,0,1.7,0.7,1.7,1.6c0,0,0,0,0,0.1L79.8,14.2z"/>
<polygon class="st0" points="95.8,20.4 91.2,20.4 87.9,10.2 92,10.2 93.6,16.4 93.6,16.4 95.2,10.2 99.2,10.2 "/>
<path class="st0" d="M104.6,9.1h-3.9V6.4h3.9V9.1z M100.7,10.2h3.9v10.2h-3.9V10.2z"/>
<path class="st0" d="M112.8,13.2c0-0.3-0.2-0.6-0.5-0.8c-0.2-0.2-0.5-0.3-0.9-0.3c-0.6,0-1.2,0.1-1.2,0.8c0,0.3,0.2,0.4,0.4,0.5
	c0.7,0.3,2.1,0.4,3.4,0.8s2.4,1.2,2.4,2.9c0,2.8-2.7,3.6-5.2,3.6s-5-1-5.1-3.6h3.7c0,0.4,0.2,0.7,0.5,0.9c0.3,0.2,0.6,0.3,1,0.3
	c0.5,0,1.3-0.2,1.3-0.8s-0.3-0.8-2.2-1.1c-3-0.5-4.2-1.5-4.2-3.2c0-2.6,2.8-3.2,4.8-3.2c2.2,0,4.9,0.6,5,3.2H112.8z"/>
<path class="st0" d="M128.7,13.9c0-2,0-4-4.9-4c-2.4,0-5.1,0.5-5.2,3.4h3.6c0-0.4,0.2-1,1.4-1c0.6,0,1.3,0.3,1.3,1s-0.5,0.8-1.1,0.9
	c-2,0.4-5.8,0.3-5.8,3.5c0,2.1,1.6,3.1,3.6,3.1c1.2,0.1,2.4-0.3,3.3-1.2l0,0c0,0.3,0,0.7,0.1,1h4c-0.4-0.7-0.5-1.5-0.5-2.3
	L128.7,13.9z M125,16.8c0,0.9-0.6,1.6-1.5,1.6c0,0-0.1,0-0.1,0c-0.6,0.1-1.1-0.4-1.2-0.9c0-0.7,0.4-0.9,1.3-1.1
	c0.5-0.1,1-0.3,1.5-0.5V16.8z"/>
</svg>
