<svg id="Capa_1" data-name="Capa 1" xmlns="http://www.w3.org/2000/svg" viewBox="0 0 129.21 24.07"><title>lg_televisa</title><path d="M26,5.92a23.48,23.48,0,0,0-6.48.81h13A23.51,23.51,0,0,0,26,5.92Z" transform="translate(-7.45 -5.92)"/><path d="M15.55,8.58c-.66.33-1.36.8-2,1.16h6.25a10.19,10.19,0,0,1,1.62-1.16Z" transform="translate(-7.45 -5.92)"/><path d="M38.35,9.74c-.61-.36-1.31-.83-2-1.16h-5.9A10.19,10.19,0,0,1,32.1,9.74Z" transform="translate(-7.45 -5.92)"/><path d="M11.61,11a15.73,15.73,0,0,0-1.85,1.51h7.41A9.46,9.46,0,0,1,18.33,11Z" transform="translate(-7.45 -5.92)"/><path d="M42.05,12.52A15.73,15.73,0,0,0,40.2,11H33.6a9.46,9.46,0,0,1,1.16,1.51Z" transform="translate(-7.45 -5.92)"/><path d="M44.13,16A7.46,7.46,0,0,0,43,13.68H35.34A9.81,9.81,0,0,1,36,16Z" transform="translate(-7.45 -5.92)"/><path d="M9,13.68A7.25,7.25,0,0,0,7.8,16h8.1a9.81,9.81,0,0,1,.69-2.31Z" transform="translate(-7.45 -5.92)"/><path d="M15.78,17H7.56a6.71,6.71,0,0,0,0,2.43H15.9A5.92,5.92,0,0,1,15.78,17Z" transform="translate(-7.45 -5.92)"/><path d="M36.15,17h8.21a6.29,6.29,0,0,1,0,2.43H36A6.1,6.1,0,0,0,36.15,17Z" transform="translate(-7.45 -5.92)"/><path d="M42.17,22.82A9,9,0,0,0,44,20.39h-8.1a9.87,9.87,0,0,1-1.16,2.43Z" transform="translate(-7.45 -5.92)"/><path d="M7.91,20.39a9,9,0,0,0,1.85,2.43h7.41A9.53,9.53,0,0,1,16,20.39Z" transform="translate(-7.45 -5.92)"/><path d="M17.52,23.63H10.34a23.55,23.55,0,0,0,4.4,3h6.13A10.1,10.1,0,0,1,17.52,23.63Z" transform="translate(-7.45 -5.92)"/><path d="M34.3,23.63h7.17a23.18,23.18,0,0,1-4.4,3H30.94A10.23,10.23,0,0,0,34.3,23.63Z" transform="translate(-7.45 -5.92)"/><path d="M21.8,27.68H15.66A24.87,24.87,0,0,0,26,30a24.8,24.8,0,0,0,10.3-2.31H30.13a10.69,10.69,0,0,1-4.17.94A10.65,10.65,0,0,1,21.8,27.68Z" transform="translate(-7.45 -5.92)"/><polygon points="50.3 9.96 46.36 9.96 46.36 6.35 58.56 6.35 58.56 9.96 54.63 9.96 54.63 20.41 50.3 20.41 50.3 9.96"/><path d="M75.76,22.1c0-4-1.75-6.24-5.81-6.24a5.24,5.24,0,0,0-5.39,5.39c0,3.41,2.46,5.34,5.73,5.34,2.32,0,4.47-1,5.25-3.23H71.9a2.05,2.05,0,0,1-3.62-1.26Zm-7.46-2a1.84,1.84,0,0,1,2-1.71A1.68,1.68,0,0,1,72,20.07Z" transform="translate(-7.45 -5.92)"/><rect x="70.22" y="6.35" width="3.9" height="14.06"/><path d="M94.66,22.1c0-4-1.75-6.24-5.81-6.24a5.24,5.24,0,0,0-5.39,5.39c0,3.41,2.46,5.34,5.73,5.34,2.32,0,4.46-1,5.25-3.23H90.8a2.05,2.05,0,0,1-3.62-1.26Zm-7.46-2a1.84,1.84,0,0,1,2-1.71,1.68,1.68,0,0,1,1.71,1.71Z" transform="translate(-7.45 -5.92)"/><polygon points="95.84 20.41 91.23 20.41 87.88 10.19 92 10.19 93.59 16.41 93.63 16.41 95.25 10.19 99.22 10.19 95.84 20.41"/><path d="M112,15h-3.89V12.28H112Zm-3.89,1.11H112V26.33h-3.89Z" transform="translate(-7.45 -5.92)"/><path d="M120.24,19.09a1,1,0,0,0-.46-.77,1.32,1.32,0,0,0-.86-.29c-.55,0-1.18.11-1.18.78,0,.3.23.43.45.54.65.27,2.13.35,3.43.78s2.44,1.18,2.44,2.86c0,2.83-2.72,3.6-5.2,3.6s-5-1-5.1-3.6h3.72a1.26,1.26,0,0,0,.47.9,1.62,1.62,0,0,0,1,.3c.51,0,1.32-.2,1.32-.79s-.34-.77-2.15-1.08c-3-.51-4.17-1.46-4.17-3.21,0-2.58,2.77-3.25,4.82-3.25,2.2,0,4.86.61,5,3.23Z" transform="translate(-7.45 -5.92)"/><path d="M136.19,19.86c0-2,0-4-4.85-4-2.42,0-5.14.47-5.25,3.35h3.62c0-.44.25-1.05,1.45-1.05.63,0,1.28.26,1.28.95s-.53.8-1.06.9c-2,.38-5.77.26-5.77,3.49,0,2.14,1.63,3.09,3.61,3.09a4.12,4.12,0,0,0,3.28-1.22h0a2.66,2.66,0,0,0,.14,1h4a4.05,4.05,0,0,1-.47-2.28Zm-3.75,2.83a1.54,1.54,0,0,1-1.63,1.59,1.12,1.12,0,0,1-1.22-.94c0-.69.45-.91,1.32-1.1a7,7,0,0,0,1.53-.49Z" transform="translate(-7.45 -5.92)"/></svg>